<svg xmlns="http://www.w3.org/2000/svg" width="650" height="686" viewBox="110 120 460 450" version="1.1"><path d="M 177 127.505 C 173.975 128.220, 170.079 129.256, 168.342 129.806 C 159.316 132.668, 148.358 142.413, 143.593 151.816 C 137.761 163.326, 138 157.178, 138 295.651 C 138 365.628, 138.384 423.119, 138.853 423.409 C 139.323 423.700, 143.373 420.181, 147.853 415.591 C 153.959 409.336, 156.034 406.525, 156.136 404.372 C 156.211 402.792, 156.548 348.400, 156.886 283.500 L 157.500 165.500 160.602 160 C 164.420 153.232, 170.336 148.542, 177.816 146.356 C 182.917 144.865, 192.783 144.685, 274 144.597 L 364.500 144.500 365.055 187 C 365.361 210.375, 365.971 230.287, 366.412 231.250 C 367.155 232.871, 369.963 233, 404.525 233 C 425.046 233, 442.548 233.273, 443.418 233.607 C 444.782 234.130, 445 236.763, 445 252.673 C 445 271.300, 445.460 274.124, 448.906 276.664 C 450.855 278.101, 451.556 277.711, 457.965 271.636 L 463.096 266.772 462.798 242.034 L 462.500 217.297 457.829 211.832 C 455.261 208.826, 446.261 199.382, 437.829 190.846 C 429.398 182.309, 412.048 164.733, 399.272 151.787 C 378.566 130.804, 375.560 128.127, 371.579 127.124 C 364.728 125.399, 184.416 125.752, 177 127.505 M 225 180.586 C 203.386 184.396, 190.424 188.965, 186.730 194.077 C 185.705 195.495, 184.458 198.420, 183.957 200.577 C 182.550 206.647, 182.724 373.711, 184.139 374.586 C 184.811 375.001, 187.968 372.467, 191.848 368.395 C 195.462 364.603, 203.387 356.315, 209.459 349.977 C 215.532 343.639, 225.784 332.805, 232.241 325.901 C 238.699 318.996, 245.073 312.764, 246.407 312.050 C 248.638 310.856, 249.363 311.140, 255.524 315.626 C 259.206 318.307, 267.682 324.793, 274.359 330.040 C 288.848 341.426, 304.849 353, 306.101 353 C 307.777 353, 307.011 350.390, 302.122 339.433 C 299.440 333.420, 295.804 323.775, 294.043 318 C 287.589 296.835, 286.484 290.440, 286.611 275 C 286.709 263.021, 287.014 260.738, 289.320 254.740 C 292.406 246.710, 296.363 240.712, 301.833 235.770 C 309.666 228.693, 309.840 228.639, 319.200 230.380 C 332.363 232.828, 335.113 233.547, 341.681 236.255 C 345.081 237.657, 348.119 238.548, 348.431 238.235 C 350.657 236.010, 347.156 221.475, 342.435 213.339 C 337.157 204.244, 325.156 194.715, 310.389 187.893 C 295.704 181.108, 281.447 178.944, 252.678 179.132 C 241.032 179.208, 229.329 179.823, 225 180.586 M 552.500 198.025 C 550.850 198.476, 546.125 199.743, 542 200.841 C 524.763 205.428, 518.587 207.160, 507.343 210.558 C 500.829 212.527, 495.133 214.496, 494.685 214.934 C 494.236 215.372, 498.587 219.729, 504.353 224.615 C 510.120 229.502, 514.874 233.895, 514.919 234.379 C 515.014 235.414, 512.053 238.769, 494.560 257.441 C 457.794 296.687, 450.684 304, 449.293 304 C 447.728 304, 438.221 296.720, 417.591 279.725 C 411.041 274.329, 405.191 270.046, 404.591 270.207 C 403.098 270.608, 374.302 300.440, 343.498 333.500 C 320.268 358.431, 302.717 376.001, 301.063 375.981 C 300.204 375.970, 297.700 374.361, 295.500 372.404 C 293.300 370.448, 284.525 363.166, 276 356.222 C 267.475 349.278, 260.275 343.343, 260 343.034 C 257.614 340.353, 248.880 334, 247.579 334 C 245.878 334, 236.280 343.344, 208 372.528 C 198.925 381.893, 184.525 396.745, 176 405.532 C 167.475 414.320, 156.225 426.225, 151 431.988 C 145.775 437.751, 139.576 444.340, 137.224 446.628 C 130.374 453.295, 119 466.313, 119 467.487 C 119 468.628, 138.876 487.492, 139.419 486.866 C 139.594 486.665, 141.907 483.800, 144.560 480.500 C 149.524 474.324, 176.158 446.206, 207.063 414.511 C 216.723 404.605, 229.741 391.212, 235.992 384.750 C 242.242 378.288, 247.932 373, 248.636 373 C 250.164 373, 270.334 388.947, 288.713 404.685 C 295.980 410.908, 302.538 416, 303.286 416 C 305.061 416, 332.623 387.693, 369 348.512 C 372.575 344.661, 379.384 337.459, 384.132 332.505 C 388.879 327.552, 395.148 320.885, 398.062 317.689 C 400.976 314.493, 404.189 311.434, 405.202 310.892 C 407.250 309.796, 409.515 311.402, 434.611 331.750 C 442.242 337.938, 449.156 343, 449.976 343 C 451.354 343, 467.288 327.317, 481.500 311.973 C 484.800 308.411, 494.755 297.847, 503.623 288.498 C 512.490 279.149, 523.024 267.809, 527.030 263.297 C 531.036 258.785, 534.982 254.837, 535.798 254.524 C 537.652 253.813, 540.236 255.494, 548.172 262.574 C 558.161 271.488, 557.719 271.611, 558.373 259.734 C 558.682 254.105, 559.179 237.688, 559.476 223.250 L 560.016 197 557.758 197.102 C 556.516 197.159, 554.150 197.574, 552.500 198.025 M 267.031 204.250 C 267.085 206.426, 275.473 212, 278.693 212 C 282.071 212, 285 209.356, 285 206.307 C 285 204.644, 284.152 204.156, 280.360 203.636 C 272.740 202.591, 266.996 202.856, 267.031 204.250 M 463.914 350.198 C 459.836 354.660, 455.715 359.478, 454.757 360.905 C 453.137 363.316, 453.013 368.929, 453.007 440.221 L 453 516.943 450.625 522.221 C 447.753 528.606, 443.192 533.119, 436.500 536.199 L 431.500 538.500 306.328 538.765 L 181.156 539.030 175.463 536.900 C 168.731 534.382, 162.705 528.761, 159.649 522.149 C 157.749 518.038, 157.462 515.390, 157.171 499.250 C 156.868 482.472, 156.696 481, 155.043 481 C 154.054 481, 152.685 481.675, 152.001 482.499 C 151.317 483.323, 147.886 486.046, 144.378 488.550 L 138 493.101 138 504.822 C 138 513.139, 138.535 518.473, 139.843 523.189 C 143.422 536.097, 152.691 546.656, 165.803 552.765 L 173.500 556.351 198.500 557.101 C 212.250 557.514, 269.485 557.885, 325.688 557.926 C 439.329 558.008, 435.030 558.241, 448.285 551.279 C 456.679 546.870, 462.762 540.282, 467.747 530.201 L 471.500 522.612 472.150 502.556 C 473.119 472.684, 473.130 343.198, 472.164 342.601 C 471.704 342.317, 467.992 345.736, 463.914 350.198 M 193.250 447.235 L 183 457.534 183 463.067 C 183 466.110, 183.540 469.140, 184.200 469.800 C 186.032 471.632, 215.368 471.467, 216.904 469.615 C 217.688 468.671, 217.965 463.346, 217.777 452.865 L 217.500 437.500 210.500 437.218 L 203.500 436.936 193.250 447.235 M 226 454.024 L 226 471.048 242.750 470.774 L 259.500 470.500 259.774 453.750 L 260.048 437 243.024 437 L 226 437 226 454.024 M 268 452.418 C 268 460.898, 268.273 468.548, 268.607 469.418 C 269.125 470.769, 271.537 471, 285.107 471 L 301 471 301 454 L 301 437 284.500 437 L 268 437 268 452.418 M 310 454 L 310 471 327 471 L 344 471 344 454 L 344 437 327 437 L 310 437 310 454 M 351.656 437.750 C 350.928 438.933, 350.847 467.439, 351.567 469.315 C 352.137 470.800, 354.156 471, 368.607 471 L 385 471 385 454 L 385 437 368.559 437 C 359.516 437, 351.910 437.337, 351.656 437.750 M 394.226 453.750 L 394.500 470.500 411 470.500 L 427.500 470.500 427.774 453.750 L 428.048 437 411 437 L 393.952 437 394.226 453.750 M 183.200 479.200 C 182.368 480.032, 182 485.237, 182 496.165 C 182 510.728, 182.147 512.009, 183.934 512.965 C 186.363 514.265, 214.496 514.340, 216.901 513.053 C 218.504 512.195, 218.639 510.576, 218.338 495.803 C 218.156 486.836, 218.005 479.163, 218.003 478.750 C 217.998 477.426, 184.542 477.858, 183.200 479.200 M 225.667 478.667 C 224.660 479.674, 224.867 511.800, 225.884 512.428 C 227.588 513.482, 246.674 514.268, 253.304 513.558 L 260 512.841 260 496.065 L 260 479.289 253.250 478.652 C 244.357 477.812, 226.512 477.821, 225.667 478.667 M 268.224 479.176 C 267.363 480.037, 267 485.049, 267 496.078 C 267 508.964, 267.274 511.982, 268.538 513.031 C 269.720 514.013, 273.698 514.151, 285.760 513.631 C 294.387 513.259, 301.808 512.592, 302.251 512.149 C 302.694 511.706, 302.706 503.954, 302.278 494.922 L 301.500 478.500 285.474 478.226 C 273.854 478.028, 269.111 478.289, 268.224 479.176 M 309.443 479.288 C 309.171 479.997, 309.073 487.985, 309.224 497.038 L 309.500 513.500 326.750 513.774 L 344 514.047 344 496.024 L 344 478 326.969 478 C 313.995 478, 309.819 478.307, 309.443 479.288 M 351.690 478.643 C 351.310 479.023, 351 486.860, 351 496.060 C 351 510.389, 351.227 512.873, 352.582 513.393 C 354.670 514.194, 378.869 514.176, 382.898 513.370 L 386.046 512.741 385.773 495.620 L 385.500 478.500 368.940 478.227 C 359.832 478.076, 352.069 478.264, 351.690 478.643 M 393.667 478.667 C 393.300 479.033, 393 486.694, 393 495.691 L 393 512.050 395.632 513.050 C 397.096 513.607, 404.971 513.929, 413.382 513.775 L 428.500 513.500 428.775 497.133 C 428.964 485.912, 428.690 480.331, 427.903 479.383 C 427.012 478.310, 423.124 478, 410.544 478 C 401.628 478, 394.033 478.300, 393.667 478.667" stroke="none" fill="#397164" fill-rule="evenodd"/></svg>